<svg xmlns="http://www.w3.org/2000/svg" version="1.1" xmlns:xlink="http://www.w3.org/1999/xlink" xmlns:svgjs="http://svgjs.dev/svgjs" width="100" height="100" viewBox="0 0 1500 1582"><g transform="matrix(1,0,0,1,-0.5744158150444036,-2.5504349384998477)"><svg viewBox="0 0 235 248" data-background-color="#ffffff" preserveAspectRatio="xMidYMid meet" height="1582" width="1500" xmlns="http://www.w3.org/2000/svg" xmlns:xlink="http://www.w3.org/1999/xlink"><g id="tight-bounds" transform="matrix(1,0,0,1,0.08999181102362286,0.40002634420793015)"><svg viewBox="0 0 234.82001637795275 247.2" height="247.2" width="234.82001637795275"><g><svg viewBox="0 0 234.82001637795275 247.2" height="247.2" width="234.82001637795275"><g><svg viewBox="0 0 234.82001637795275 247.2" height="247.2" width="234.82001637795275"><g id="textblocktransform"><svg viewBox="0 0 234.82001637795275 247.2" height="247.2" width="234.82001637795275" id="textblock"><g><svg viewBox="0 0 234.82001637795275 247.2" height="247.2" width="234.82001637795275"><path d="M234.27 53.02C233.166 27.36 230.02 20.227 230.02 20.227 220.361-6.202 208.306-0.506 197.476 3.292 178.356 3.446 159.313 9.091 140.237 12.119 100.197 12.581 59.815 4.986 19.974 23.717 16.231 29.464-3.883 24.846 0.666 56.304 1.858 69.39 6.207 83.913 6.075 95.922 6.671 98.026 7.499 93.202 7.852 96.23 9.089 104.39 11.109 100.541 12.765 105.365 10.458 118.246 12.114 128.971 13.692 140.21 10.91 143.135 7.344 141.749 5.744 151.449 5.578 158.479 4.684 157.145 3.702 156.837 2.984 156.632 1.538 157.402 1.781 159.608 2.609 167.152-0.946 171.514 1.284 178.904-0.251 186.91 2.344 193.838 1.99 202.511 1.946 204.255 2.189 205.744 2.575 206.154 4.287 208.361 1.792 212.672 2.057 217.342 19.609 249.262 38.652 227.195 56.635 241.872 61.305 231.608 57.795 245.516 59.66 243.36 61.117 240.846 62.177 251.263 63.822 245.362 64.076 243.668 63.69 239.665 64.595 240.435 65.069 240.846 65.489 240.743 65.555 238.382 65.655 234.841 64.782 237.048 64.551 235.201 67.057 225.861 66.438 248.081 68.79 247.158 68.679 244.438 67.995 240.538 69.397 241.051 70.788 237.151 70.832 233.918 72.068 242.693 72.113 244.592 72.333 245.926 72.687 246.85 76.55 237.305 80.392 250.237 84.444 245.926 86.927 241.205 89.312 248.492 91.829 246.696 92.712 245.259 93.606 242.693 94.456 247.004 104.866 247.928 115.961 244.079 125.83 247.158 152.203 241.41 180.387 249.518 208.195 241.923 214.753 238.998 221.564 234.841 227.956 231.506 227.956 231.506 233.133 222.371 233.133 181.316S234.237 145.393 234.403 112.703C234.568 80.013 235.341 78.679 234.237 53.02Z" opacity="1" fill="#7403ab" data-fill-palette-color="tertiary"></path><g transform="matrix(1,0,0,1,55.76832,26.230666666666668)"><svg width="123.28337637795275" viewBox="3.69 -30.3 19.63 31.01" height="194.73866666666666" data-palette-color="#ffffff"><path d="M7.25-17.92Q7.15-16.21 7.15-11.13L7.15-11.13Q7.15-9.08 7.14-7.96 7.13-6.84 7.13-6.2L7.13-6.2Q7.1-5.57 7.1-4.42L7.1-4.42Q7.1-2.1 6.7-0.99 6.3 0.12 5.37 0.12L5.37 0.12Q4.37 0.12 4.03-0.45 3.69-1.03 3.69-2.17L3.69-2.17Q3.69-2.61 3.74-3.74L3.74-3.74 3.83-11.99Q4-15.5 4.04-17.31 4.08-19.12 4.08-21.19L4.08-21.19Q4.08-21.8 4.05-22.22L4.05-22.22Q3.98-24.63 3.98-26.59L3.98-26.59Q3.98-27.12 4.16-27.87 4.35-28.61 4.69-29.15 5.03-29.69 5.49-29.69L5.49-29.69Q6.79-29.69 7.47-28.43 8.15-27.17 8.59-24.93L8.59-24.93Q9.3-21.46 11.51-17.1 13.72-12.74 16.03-9.34 18.33-5.93 18.73-5.93L18.73-5.93Q18.85-5.93 18.95-6.81 19.04-7.69 19.2-11.82 19.36-15.94 19.63-25.1L19.63-25.1Q19.68-27.17 19.82-28.23 19.97-29.3 20.36-29.8 20.75-30.3 21.51-30.3L21.51-30.3Q22.22-30.3 22.58-30.13 22.95-29.96 23.13-29.36 23.32-28.76 23.32-27.49L23.32-27.49Q23.32-22.53 22.99-17.88 22.66-13.23 21.97-5.98L21.97-5.98 21.9-5.2 21.9-4.57Q21.85-2.98 21.66-1.88 21.46-0.78 20.85-0.04 20.24 0.71 19.07 0.71L19.07 0.71Q18.63 0.71 18.14 0.27 17.65-0.17 17.48-0.56L17.48-0.56Q14.62-4.13 11.88-8.8 9.13-13.48 7.25-17.92L7.25-17.92Z" opacity="1" transform="matrix(1,0,0,1,0,0)" fill="#ffffff" class="wordmark-text-0" data-fill-palette-color="quaternary" id="text-0"></path></svg></g></svg></g></svg></g></svg></g><g></g></svg></g><defs></defs></svg><rect width="234.82001637795275" height="247.2" fill="none" stroke="none" visibility="hidden"></rect></g></svg></g></svg>